HIERARCHY
ROOT Hips
{
  OFFSET -21.6994 31.6921 0
  CHANNELS 6 Xposition Yposition Zposition Zrotation Xrotation Yrotation
  JOINT Bip01_Pelvis
  {
    OFFSET 0 0 0
    CHANNELS 6 Xposition Yposition Zposition Zrotation Xrotation Yrotation
    JOINT BN_Tail_01
    {
      OFFSET -7.25226 -1.74978 0
      CHANNELS 6 Xposition Yposition Zposition Zrotation Xrotation Yrotation
      JOINT BN_Tail_02
      {
        OFFSET 15.788 0 0
        CHANNELS 6 Xposition Yposition Zposition Zrotation Xrotation Yrotation
        JOINT BN_Tail_03
        {
          OFFSET 16.0015 0 0
          CHANNELS 6 Xposition Yposition Zposition Zrotation Xrotation Yrotation
          JOINT BN_Tail_04
          {
            OFFSET 16.1689 0 0
            CHANNELS 6 Xposition Yposition Zposition Zrotation Xrotation Yrotation
            End Site
            {
              OFFSET 0 0 0
            }
          }
        }
      }
    }
    JOINT Bip01_Spine
    {
      OFFSET 6.38383 2.70859 0.585432
      CHANNELS 6 Xposition Yposition Zposition Zrotation Xrotation Yrotation
      JOINT BN_Mane_02
      {
        OFFSET 6.12662 8.45826 0
        CHANNELS 6 Xposition Yposition Zposition Zrotation Xrotation Yrotation
        End Site
        {
          OFFSET 0 0 0
        }
      }
      JOINT Bip01_R_Thigh
      {
        OFFSET -7.04074 -2.18223 -5.47025
        CHANNELS 6 Xposition Yposition Zposition Zrotation Xrotation Yrotation
        JOINT Bip01_R_Calf
        {
          OFFSET 13.6591 0 0
          CHANNELS 6 Xposition Yposition Zposition Zrotation Xrotation Yrotation
          JOINT Bip01_R_HorseLink
          {
            OFFSET 9.07516 0 0
            CHANNELS 6 Xposition Yposition Zposition Zrotation Xrotation Yrotation
            JOINT Bip01_R_Foot
            {
              OFFSET 8.13856 0 0
              CHANNELS 6 Xposition Yposition Zposition Zrotation Xrotation Yrotation
              JOINT Bip01_R_Toe0
              {
                OFFSET 3.79737 6.30086 0
                CHANNELS 6 Xposition Yposition Zposition Zrotation Xrotation Yrotation
                JOINT Bip01_R_Toe0Nub
                {
                  OFFSET 0.838764 0 0
                  CHANNELS 6 Xposition Yposition Zposition Zrotation Xrotation Yrotation
                  End Site
                  {
                    OFFSET 0 0 0
                  }
                }
              }
            }
          }
        }
      }
      JOINT Bip01_L_Thigh
      {
        OFFSET -6.18667 -2.14873 5.3508
        CHANNELS 6 Xposition Yposition Zposition Zrotation Xrotation Yrotation
        JOINT Bip01_L_Calf
        {
          OFFSET 13.6591 0 0
          CHANNELS 6 Xposition Yposition Zposition Zrotation Xrotation Yrotation
          JOINT Bip01_L_HorseLink
          {
            OFFSET 9.07515 0 0
            CHANNELS 6 Xposition Yposition Zposition Zrotation Xrotation Yrotation
            JOINT Bip01_L_Foot
            {
              OFFSET 8.13856 0 0
              CHANNELS 6 Xposition Yposition Zposition Zrotation Xrotation Yrotation
              JOINT Bip01_L_Toe0
              {
                OFFSET 3.79737 6.30086 0
                CHANNELS 6 Xposition Yposition Zposition Zrotation Xrotation Yrotation
                JOINT Bip01_L_Toe0Nub
                {
                  OFFSET 0.838764 0 0
                  CHANNELS 6 Xposition Yposition Zposition Zrotation Xrotation Yrotation
                  End Site
                  {
                    OFFSET 0 0 0
                  }
                }
              }
            }
          }
        }
      }
      JOINT Bip01_Spine1
      {
        OFFSET 12.1687 -0.0105438 0
        CHANNELS 6 Xposition Yposition Zposition Zrotation Xrotation Yrotation
        JOINT BN_Mane_R_01
        {
          OFFSET -0.157498 5.09008 -6.54008
          CHANNELS 6 Xposition Yposition Zposition Zrotation Xrotation Yrotation
          End Site
          {
            OFFSET 0 0 0
          }
        }
        JOINT BN_Mane_R_02
        {
          OFFSET -0.1575 5.09007 6.54
          CHANNELS 6 Xposition Yposition Zposition Zrotation Xrotation Yrotation
          End Site
          {
            OFFSET 0 0 0
          }
        }
        JOINT BN_Mane_01
        {
          OFFSET 8.29709 8.50414 0
          CHANNELS 6 Xposition Yposition Zposition Zrotation Xrotation Yrotation
          End Site
          {
            OFFSET 0 0 0
          }
        }
        JOINT Bip01_Spine2
        {
          OFFSET 13.2802 -0.0100708 1.51992e-005
          CHANNELS 6 Xposition Yposition Zposition Zrotation Xrotation Yrotation
          JOINT Bip01_Neck
          {
            OFFSET 12.4891 -6.66662 0
            CHANNELS 6 Xposition Yposition Zposition Zrotation Xrotation Yrotation
            JOINT Bip01_R_Clavicle
            {
              OFFSET -7.4542 -2.82621 -1.17874
              CHANNELS 6 Xposition Yposition Zposition Zrotation Xrotation Yrotation
              JOINT Bip01_R_UpperArm
              {
                OFFSET 13.2557 0 0
                CHANNELS 6 Xposition Yposition Zposition Zrotation Xrotation Yrotation
                JOINT Bip01_R_Forearm
                {
                  OFFSET 12.8897 0 0
                  CHANNELS 6 Xposition Yposition Zposition Zrotation Xrotation Yrotation
                  JOINT Bip01_R_Hand
                  {
                    OFFSET 11.2622 0 0
                    CHANNELS 6 Xposition Yposition Zposition Zrotation Xrotation Yrotation
                    JOINT Bip01_R_Finger0
                    {
                      OFFSET 3.98015 -0.208661 -0.0949803
                      CHANNELS 6 Xposition Yposition Zposition Zrotation Xrotation Yrotation
                      JOINT Bip01_R_Finger0Nub
                      {
                        OFFSET 6.57561 0 0
                        CHANNELS 6 Xposition Yposition Zposition Zrotation Xrotation Yrotation
                        End Site
                        {
                          OFFSET 0 0 0
                        }
                      }
                    }
                  }
                }
              }
            }
            JOINT Bip01_L_Clavicle
            {
              OFFSET -7.4541 -2.82679 1.17708
              CHANNELS 6 Xposition Yposition Zposition Zrotation Xrotation Yrotation
              JOINT Bip01_L_UpperArm
              {
                OFFSET 13.2558 0 0
                CHANNELS 6 Xposition Yposition Zposition Zrotation Xrotation Yrotation
                JOINT Bip01_L_Forearm
                {
                  OFFSET 12.8897 0 0
                  CHANNELS 6 Xposition Yposition Zposition Zrotation Xrotation Yrotation
                  JOINT Bip01_L_Hand
                  {
                    OFFSET 11.2622 0 0
                    CHANNELS 6 Xposition Yposition Zposition Zrotation Xrotation Yrotation
                    JOINT Bip01_L_Finger0
                    {
                      OFFSET 3.98014 -0.20866 0.0949764
                      CHANNELS 6 Xposition Yposition Zposition Zrotation Xrotation Yrotation
                      JOINT Bip01_L_Finger0Nub
                      {
                        OFFSET 6.57562 0 0
                        CHANNELS 6 Xposition Yposition Zposition Zrotation Xrotation Yrotation
                        End Site
                        {
                          OFFSET 0 0 0
                        }
                      }
                    }
                  }
                }
              }
            }
            JOINT Bip01_Neck1
            {
              OFFSET 4.19352 -0.00332451 0
              CHANNELS 6 Xposition Yposition Zposition Zrotation Xrotation Yrotation
              JOINT Bip01_Head
              {
                OFFSET 4.17604 0.298252 0
                CHANNELS 6 Xposition Yposition Zposition Zrotation Xrotation Yrotation
                JOINT BN_Eye_R_01
                {
                  OFFSET 6.53258 -3.90694 -2.55361
                  CHANNELS 6 Xposition Yposition Zposition Zrotation Xrotation Yrotation
                  End Site
                  {
                    OFFSET 0 0 0
                  }
                }
                JOINT BN_Eye_L_01
                {
                  OFFSET 6.5326 -3.90694 2.55371
                  CHANNELS 6 Xposition Yposition Zposition Zrotation Xrotation Yrotation
                  End Site
                  {
                    OFFSET 0 0 0
                  }
                }
                JOINT BN_Ear_R_01
                {
                  OFFSET 1.75934 -4.1584 -4.45634
                  CHANNELS 6 Xposition Yposition Zposition Zrotation Xrotation Yrotation
                  End Site
                  {
                    OFFSET 0 0 0
                  }
                }
                JOINT BN_Ear_L_01
                {
                  OFFSET 1.75933 -4.15841 4.45616
                  CHANNELS 6 Xposition Yposition Zposition Zrotation Xrotation Yrotation
                  End Site
                  {
                    OFFSET 0 0 0
                  }
                }
                JOINT BN_Beard_L_01
                {
                  OFFSET 11.2964 -1.06183 2.32054
                  CHANNELS 6 Xposition Yposition Zposition Zrotation Xrotation Yrotation
                  End Site
                  {
                    OFFSET 0 0 0
                  }
                }
                JOINT BN_Beard_R_01
                {
                  OFFSET 11.2964 -1.06182 -2.32036
                  CHANNELS 6 Xposition Yposition Zposition Zrotation Xrotation Yrotation
                  End Site
                  {
                    OFFSET 0 0 0
                  }
                }
                JOINT BN_Mouth_0
                {
                  OFFSET 1.3149 1.30001 0
                  CHANNELS 6 Xposition Yposition Zposition Zrotation Xrotation Yrotation
                  End Site
                  {
                    OFFSET 0 0 0
                  }
                }
                JOINT Bip01_HeadNub
                {
                  OFFSET 12.6869 0 0
                  CHANNELS 6 Xposition Yposition Zposition Zrotation Xrotation Yrotation
                  End Site
                  {
                    OFFSET 0 0 0
                  }
                }
              }
            }
          }
        }
      }
    }
  }
}
MOTION
Frames:	4
Frame Time:	0.0333333
-46.7936 6.82956 14.1279 -0.761405 15.0244 64.4548 0 1.13687e-013 0 -86.3875 1.64694 -90.1207 -7.25225 -1.74978 -2.91021e-011 -3.44031 -28.9186 170.424 15.788 -1.42109e-014 5.9952e-015 -19.5486 0.252565 13.1067 16.0015 9.53674e-007 4.76837e-007 1.20523 5.29562 21.98 16.1689 -1.90735e-006 3.8147e-006 14.5107 13.5625 27.1085 6.33001 2.88737 -0.182541 8.38288 -14.6832 -12.1261 6.12662 8.45827 3.84048e-007 -90.3139 -2.28298 159.817 -7.70316 -0.54047 -4.03524 -155.109 -8.98913 170.099 13.6591 -1.90735e-006 -4.90719e-014 -133.382 -5.98311e-006 7.82384e-006 9.07516 -5.72205e-006 4.17444e-014 70.4778 2.06753e-007 1.2747e-006 8.13856 7.10543e-015 2.66454e-015 -20.8786 -10.7055 -10.9627 3.79737 6.30085 1.35844e-005 21.9318 -82.9313 -67.8048 0.83877 -5.96047e-008 8.88178e-016 -2.88949e-008 -2.88507e-011 1.93769e-011 -5.49705 -3.2922 6.23049 -97.1213 -17.4897 169.252 13.6591 9.53674e-007 5.66214e-015 -88.943 6.21687e-006 2.19176e-005 9.07516 -1.06581e-014 -4.76837e-007 113.718 -8.21555e-006 -4.10692e-006 8.13856 -1.42109e-014 -4.76837e-007 -43.3961 -5.81368 1.85169 3.79738 6.30086 4.77362e-006 89.9989 0.000124851 -12.501 0.838758 2.23517e-008 -2.22045e-015 -179.96 0.000481476 -0.000407003 12.1681 -0.0104752 -2.54054e-006 10.3799 -20.4068 -6.01937 -0.157496 5.09008 -6.54009 -91.1822 -10.5464 -176.574 -0.157494 5.09007 6.54 89.864 6.4777 -21.9914 8.2971 8.50413 1.23658e-006 -90.5405 -11.2706 -174.336 13.2792 -0.00986671 -1.3181e-009 6.15558 -17.6809 -10.6885 12.4882 -6.66644 -1.11677e-005 -16.2435 18.9265 -8.29465 -6.60764 -4.43998 1.24436 -173.476 -34.2901 95.8736 13.2557 -1.90735e-006 -1.90735e-006 113.605 54.1649 -165.722 12.8897 4.44089e-016 8.22897e-013 -95.297 -2.23223e-005 7.69814e-007 11.2622 -4.76837e-007 4.44089e-016 55.4997 31.7867 -45.6457 3.98015 -0.208661 -0.0949822 -0.640694 -3.18221 10.2764 6.57562 -1.19209e-007 3.55272e-015 179.96 1.73002e-005 1.73081e-005 -6.28611 -3.67583 3.44947 -131.639 66.5225 -142.21 13.2558 -1.90735e-006 -9.53674e-007 9.2984 -68.668 56.202 12.8897 -1.77636e-015 1.0214e-014 -66.0326 -6.96097e-006 3.87232e-006 11.2622 -4.00568e-013 -2.86102e-006 64.0043 -72.9208 55.1898 3.98015 -0.208661 0.0949755 2.68053 -16.5102 -7.38348 6.57562 4.44089e-016 1.5099e-014 -1.29331e-007 -1.66047e-008 1.26406e-008 4.195 -0.00312996 -2.61565e-010 -8.34344 6.95829 -3.63232 4.17604 0.298252 2.22467e-008 42.715 -1.90844 1.97604 6.53259 -3.90693 -2.55362 -172.052 -3.76469 156.016 6.5326 -3.90695 2.55371 1.68244 -0.957926 -24.241 1.75934 -4.15839 -4.45634 66.3455 -25.212 167.534 1.75933 -4.1584 4.45616 -148.222 -48.356 -71.5371 11.2964 -1.06183 2.32054 151.297 -20.0673 -115.426 11.2964 -1.06183 -2.32035 -28.7083 -35.0725 120.795 1.31489 1.30001 9.22403e-008 -164.905 -0.048233 -179.994 12.6869 -1.42109e-014 3.55271e-015 -5.37241e-008 -1.47869e-010 1.00003e-006 
-46.8037 6.28396 15.0384 0.254208 19.4983 63.9282 3.55271e-015 1.13687e-013 0 -87.515 1.64634 -90.0675 -7.25225 -1.74978 -2.91038e-011 -6.51037 -24.4051 168.341 15.788 0 -4.44089e-016 -18.8058 -0.812872 12.6107 16.0015 9.53674e-007 4.76837e-007 0.589879 9.20077 19.2421 16.1689 -1.90735e-006 3.8147e-006 9.12733 14.0316 29.281 6.33032 2.89026 -0.124178 9.38684 -13.1429 -10.9187 6.12662 8.45827 3.22061e-007 -90.3625 -2.33258 159.229 -7.65228 -0.564899 -4.2051 -130.443 -8.80675 170.929 13.6591 -1.90735e-006 -1.70086e-013 -120.625 -3.92083e-006 1.15668e-005 9.07516 -5.72205e-006 1.81743e-013 106.806 -3.30607e-006 2.82374e-006 8.13856 0 -2.10276e-013 -44.7365 -12.8592 -4.04068 3.79737 6.30085 -7.37668e-006 -32.4975 -81.4717 -122.209 0.83877 -5.96046e-008 3.55271e-015 -2.88949e-008 -2.88507e-011 1.93769e-011 -5.64963 -3.03339 6.17381 -97.3893 -16.5173 169.202 13.6591 9.53674e-007 3.55271e-015 -86.5029 7.30885e-006 2.26085e-005 9.07516 -1.42109e-014 -4.76837e-007 112.194 -8.56396e-006 -4.04996e-006 8.13856 -1.42109e-014 -4.76837e-007 -43.0516 -3.91689 5.5 3.79738 6.30086 -1.10622e-006 89.9987 0.000127801 -12.5015 0.838758 2.23517e-008 -8.43769e-015 -179.96 0.000481476 -0.000407004 12.1681 -0.0104752 -2.54046e-006 11.5311 -19.1314 -5.06155 -0.157496 5.09008 -6.54009 -91.2455 -10.5675 -176.921 -0.157494 5.09007 6.54 89.9049 6.50877 -22.2072 8.2971 8.50413 1.24507e-006 -90.5318 -11.3138 -174.313 13.2792 -0.00986671 -1.32795e-009 8.17851 -17.364 -9.85287 12.4882 -6.66644 -1.13515e-005 -14.968 20.8065 -6.8562 -6.71952 -4.28738 1.18039 -173.613 -32.9361 97.6792 13.2557 -1.90735e-006 -1.90735e-006 115.91 54.8439 -167.341 12.8897 -4.44089e-016 1.25855e-012 -101.929 -1.48644e-005 1.12858e-005 11.2622 -4.76837e-007 -7.99361e-015 55.1556 29.9692 -45.7148 3.98015 -0.208661 -0.0949822 -0.956918 -3.81879 8.6475 6.57562 -1.19209e-007 2.66454e-015 179.96 1.7298e-005 1.73067e-005 -6.45664 -3.45045 3.36679 -130.399 69.9969 -145.062 13.2558 -1.90735e-006 -9.53674e-007 3.42 -70.7499 52.2211 12.8897 0 4.44089e-015 -66.0368 -1.36611e-005 7.26984e-006 11.2622 -3.56159e-013 -2.86102e-006 60.8076 -72.3874 55.1524 3.98015 -0.208661 0.0949755 1.88834 -16.8487 -11.8566 6.57562 -2.66453e-015 -7.9936e-015 -1.29331e-007 -1.66047e-008 1.26406e-008 4.195 -0.00312996 -2.30829e-010 -7.60958 6.52225 -3.84612 4.17604 0.298252 1.75275e-008 43.4134 -3.94066 -0.460726 6.53259 -3.90693 -2.55362 -172.052 -3.76469 156.016 6.5326 -3.90695 2.55371 1.68243 -0.957926 -24.241 1.75934 -4.15839 -4.45634 68.1364 -22.5448 169.852 1.75933 -4.1584 4.45616 -151.674 -48.8061 -76.5758 11.2964 -1.06183 2.32054 152.025 -18.0573 -116.541 11.2964 -1.06183 -2.32035 -28.7487 -35.0066 122.58 1.31489 1.30001 9.05008e-008 -167.346 -0.0518036 -179.994 12.6869 -7.10543e-015 0 -5.37241e-008 -1.47937e-010 1.00003e-006 
-46.8037 6.08745 15.0384 1.8223 21.663 63.219 3.55271e-015 1.13687e-013 7.10543e-015 -89.7773 1.65244 -90.0048 -7.25225 -1.74978 -2.91038e-011 -7.92677 -20.3121 167.452 15.788 0 2.66454e-015 -18.3721 -1.11941 12.0327 16.0015 9.53674e-007 4.76837e-007 -0.313888 10.856 17.8275 16.1689 -1.90735e-006 3.8147e-006 4.29281 13.672 30.2755 6.33048 2.89282 -0.0112063 10.0584 -10.976 -9.06338 6.12662 8.45827 2.57018e-007 -90.394 -2.36337 158.42 -7.54462 -0.678467 -4.51843 -119.112 -8.01648 170.586 13.6591 -1.90735e-006 -2.55351e-013 -106.099 -9.73012e-006 1.18636e-005 9.07516 -5.72205e-006 2.91989e-013 117.077 -2.63334e-006 3.72679e-006 8.13856 -3.55271e-015 -2.26708e-013 -57.6347 -14.0138 0.483722 3.79737 6.30085 -4.12106e-006 -47.8379 -78.4691 -137.525 0.83877 -5.96047e-008 -1.77636e-015 -2.88949e-008 -2.88507e-011 1.93769e-011 -5.86569 -2.74588 6.00453 -97.677 -14.3072 169.819 13.6591 9.53674e-007 -2.66454e-015 -85.1373 7.4471e-006 2.13638e-005 9.07516 -2.13163e-014 -4.76837e-007 111.607 0.00268118 -0.00106955 8.13856 0 -4.76837e-007 -43.2237 -3.55459 6.50403 3.79738 6.30086 -1.32016e-006 89.9986 0.000153105 -12.5021 0.838758 2.23518e-008 -3.55271e-015 -179.96 0.000481476 -0.000407004 12.1681 -0.0104752 -2.54038e-006 12.3061 -16.8268 -3.76402 -0.157495 5.09008 -6.54009 -91.6281 -9.93337 -178.854 -0.157494 5.09007 6.54 89.6052 6.3644 -20.2992 8.2971 8.50413 1.16034e-006 -90.8093 -10.5885 -175.429 13.2792 -0.00986671 -1.22965e-009 9.39729 -16.6282 -9.19862 12.4882 -6.66644 -1.14608e-005 -13.5908 20.4958 -5.46726 -6.85082 -4.13521 0.946072 -174.066 -34.2708 99.7238 13.2557 -1.90735e-006 -1.90735e-006 112.285 56.4777 -162.123 12.8897 4.44089e-016 1.27609e-012 -108.232 -1.5752e-005 1.12401e-005 11.2622 -4.76837e-007 -2.66454e-015 58.402 31.7047 -48.4171 3.98015 -0.208661 -0.0949822 -1.52532 -4.56257 6.58644 6.57562 -1.19209e-007 -7.10543e-015 179.96 1.72971e-005 1.73062e-005 -6.64055 -3.3102 3.14268 -133.174 72.4218 -143.692 13.2558 -1.90735e-006 -9.53674e-007 6.83574 -72.6602 54.1586 12.8897 -1.77636e-015 -3.55271e-015 -69.7083 -6.89922e-006 5.13299e-006 11.2622 -3.32178e-013 -2.86102e-006 64.7347 -71.508 58.4179 3.98015 -0.208661 0.0949755 1.84127 -16.7324 -14.6155 6.57562 -1.33227e-015 -1.06581e-014 -1.29331e-007 -1.66047e-008 1.26406e-008 4.195 -0.00312996 -1.87519e-010 -6.67713 5.34019 -3.43781 4.17604 0.298252 1.5043e-008 43.8256 -5.717 -2.09959 6.53259 -3.90693 -2.55362 -172.052 -3.76466 156.016 6.5326 -3.90695 2.55371 1.68246 -0.957939 -24.241 1.75934 -4.15839 -4.45634 69.3929 -20.2294 171.743 1.75933 -4.1584 4.45616 -154.922 -48.7991 -80.9139 11.2964 -1.06183 2.32054 152.794 -16.0418 -117.683 11.2964 -1.06183 -2.32035 -28.7919 -34.9415 124.381 1.31489 1.30001 9.48941e-008 -169.811 -0.0553894 -179.995 12.6869 -1.42109e-014 3.55271e-015 -5.37241e-008 -1.47981e-010 1.00003e-006 
-46.8037 6.20418 15.0384 3.83944 22.1499 62.4268 0 1.13687e-013 7.10543e-015 -92.9399 1.64842 -89.9114 -7.25225 -1.74978 -2.91021e-011 -8.30938 -16.0483 167.479 15.788 0 0 -17.8856 -0.924872 11.3359 16.0015 9.53674e-007 4.76837e-007 -1.81511 10.6956 17.3282 16.1689 -1.90735e-006 3.8147e-006 -0.541186 12.5889 30.2566 6.33047 2.88901 0.150257 10.6134 -8.15898 -6.61789 6.12662 8.45827 1.84381e-007 -90.4106 -2.3821 157.19 -7.37313 -0.864943 -4.94156 -111.544 -6.85448 170.327 13.6591 -1.90735e-006 -3.17746e-013 -92.5613 4.36614e-006 1.65185e-005 9.07516 -5.72205e-006 3.79474e-013 118.41 -2.15241e-006 4.55827e-006 8.13856 0 -2.36033e-013 -64.3047 -14.6699 4.10403 3.79737 6.30085 -3.36147e-006 -52.0474 -76.4831 -141.693 0.83877 -5.96047e-008 1.77636e-015 -2.88949e-008 -2.88507e-011 1.93769e-011 -6.13429 -2.40551 5.73136 -97.9453 -11.2098 170.991 13.6591 9.53674e-007 0 -84.1564 6.97417e-006 1.93375e-005 9.07516 -1.06581e-014 -4.76837e-007 111.415 0.00265651 -0.00104983 8.13856 -2.13163e-014 -4.76837e-007 -43.5505 -3.98463 6.41552 3.79738 6.30086 -1.35123e-006 89.9985 0.000162066 -12.5027 0.838758 2.23518e-008 2.44249e-015 -179.96 0.000481475 -0.000407005 12.1681 -0.0104752 -2.54029e-006 12.7794 -13.5984 -2.16347 -0.157495 5.09008 -6.54009 -92.3625 -8.2284 176.599 -0.157494 5.09007 6.54 88.8523 5.91803 -15.1207 8.2971 8.50413 9.81733e-007 -91.4168 -8.58869 -178.432 13.2792 -0.00986671 -1.02246e-009 10.2265 -15.5736 -8.6337 12.4882 -6.66644 -1.14812e-005 -11.9646 19.0283 -3.87861 -6.99577 -3.95451 0.593056 -174.521 -37.2472 102.251 13.2557 -1.90735e-006 -1.90735e-006 106.728 58.3564 -153.235 12.8897 -8.88178e-016 -3.40616e-013 -113.679 -1.23808e-006 -2.2676e-005 11.2622 -4.76837e-007 -3.10862e-015 61.6719 37.1633 -51.3312 3.98015 -0.208661 -0.0949822 -2.31814 -5.46182 4.00942 6.57562 -1.19209e-007 -1.77636e-015 179.96 1.72971e-005 1.73054e-005 -6.84509 -3.18632 2.81499 -139.553 74.5251 -138.692 13.2558 -1.90735e-006 -9.53674e-007 15.3321 -75.0414 59.9056 12.8897 -1.59872e-014 -1.15463e-014 -73.0663 -1.51496e-005 9.46041e-006 11.2622 -3.17968e-013 -2.86102e-006 69.7922 -71.2515 62.6045 3.98015 -0.208661 0.0949755 2.48052 -16.3167 -16.6121 6.57562 1.77636e-015 -1.86517e-014 -1.29331e-007 -1.66047e-008 1.26406e-008 4.195 -0.00312996 -1.28706e-010 -5.4384 3.63841 -2.59237 4.17604 0.298252 1.30879e-008 43.7818 -7.58255 -3.31399 6.53259 -3.90693 -2.55362 -172.052 -3.76462 156.016 6.5326 -3.90695 2.55371 1.68249 -0.957949 -24.241 1.75934 -4.15839 -4.45634 70.3536 -18.3396 173.224 1.75933 -4.1584 4.45616 -157.596 -48.5851 -84.3412 11.2964 -1.06183 2.32054 153.94 -13.3795 -118.392 11.2964 -1.06183 -2.32035 -28.838 -34.8771 126.198 1.31489 1.30001 1.00807e-007 -171.824 -0.0577698 -179.996 12.6869 0 -5.32907e-015 -5.37241e-008 -1.4803e-010 1.00003e-006 
